<svg width="240" height="100" viewBox="0 0 240 100" fill="none" xmlns="http://www.w3.org/2000/svg">
<path d="M11.95 38L0.35 3H7.1L17.45 34.65H14.1L24.85 3H30.85L41.3 34.65H38.05L48.65 3H54.85L43.25 38H36.35L26.8 9.45H28.6L18.9 38H11.95ZM69.7934 38.35C66.8267 38.35 64.2267 37.7667 61.9934 36.6C59.7934 35.4 58.0767 33.7667 56.8434 31.7C55.6434 29.6333 55.0434 27.2833 55.0434 24.65C55.0434 21.9833 55.6267 19.6333 56.7934 17.6C57.9934 15.5333 59.6267 13.9167 61.6934 12.75C63.7934 11.5833 66.1767 11 68.8434 11C71.4434 11 73.76 11.5667 75.7934 12.7C77.8267 13.8333 79.4267 15.4333 80.5934 17.5C81.76 19.5667 82.3434 22 82.3434 24.8C82.3434 25.0667 82.3267 25.3667 82.2934 25.7C82.2934 26.0333 82.2767 26.35 82.2434 26.65H59.9934V22.5H78.9434L76.4934 23.8C76.5267 22.2667 76.21 20.9167 75.5434 19.75C74.8767 18.5833 73.96 17.6667 72.7934 17C71.66 16.3333 70.3434 16 68.8434 16C67.31 16 65.96 16.3333 64.7934 17C63.66 17.6667 62.76 18.6 62.0934 19.8C61.46 20.9667 61.1434 22.35 61.1434 23.95V24.95C61.1434 26.55 61.51 27.9667 62.2434 29.2C62.9767 30.4333 64.01 31.3833 65.3434 32.05C66.6767 32.7167 68.21 33.05 69.9434 33.05C71.4434 33.05 72.7934 32.8167 73.9934 32.35C75.1934 31.8833 76.26 31.15 77.1934 30.15L80.5434 34C79.3434 35.4 77.8267 36.4833 75.9934 37.25C74.1934 37.9833 72.1267 38.35 69.7934 38.35ZM88.0469 38V0.899998H94.2969V38H88.0469ZM114.45 38.35C111.65 38.35 109.15 37.7667 106.95 36.6C104.783 35.4 103.083 33.7667 101.85 31.7C100.617 29.6333 100 27.2833 100 24.65C100 21.9833 100.617 19.6333 101.85 17.6C103.083 15.5333 104.783 13.9167 106.95 12.75C109.15 11.5833 111.65 11 114.45 11C117.05 11 119.333 11.5333 121.3 12.6C123.3 13.6333 124.817 15.1667 125.85 17.2L121.05 20C120.25 18.7333 119.267 17.8 118.1 17.2C116.967 16.6 115.733 16.3 114.4 16.3C112.867 16.3 111.483 16.6333 110.25 17.3C109.017 17.9667 108.05 18.9333 107.35 20.2C106.65 21.4333 106.3 22.9167 106.3 24.65C106.3 26.3833 106.65 27.8833 107.35 29.15C108.05 30.3833 109.017 31.3333 110.25 32C111.483 32.6667 112.867 33 114.4 33C115.733 33 116.967 32.7 118.1 32.1C119.267 31.5 120.25 30.5667 121.05 29.3L125.85 32.1C124.817 34.1 123.3 35.65 121.3 36.75C119.333 37.8167 117.05 38.35 114.45 38.35ZM142.562 38.35C139.829 38.35 137.395 37.7667 135.262 36.6C133.129 35.4 131.445 33.7667 130.212 31.7C128.979 29.6333 128.362 27.2833 128.362 24.65C128.362 21.9833 128.979 19.6333 130.212 17.6C131.445 15.5333 133.129 13.9167 135.262 12.75C137.395 11.5833 139.829 11 142.562 11C145.329 11 147.779 11.5833 149.912 12.75C152.079 13.9167 153.762 15.5167 154.962 17.55C156.195 19.5833 156.812 21.95 156.812 24.65C156.812 27.2833 156.195 29.6333 154.962 31.7C153.762 33.7667 152.079 35.4 149.912 36.6C147.779 37.7667 145.329 38.35 142.562 38.35ZM142.562 33C144.095 33 145.462 32.6667 146.662 32C147.862 31.3333 148.795 30.3667 149.462 29.1C150.162 27.8333 150.512 26.35 150.512 24.65C150.512 22.9167 150.162 21.4333 149.462 20.2C148.795 18.9333 147.862 17.9667 146.662 17.3C145.462 16.6333 144.112 16.3 142.612 16.3C141.079 16.3 139.712 16.6333 138.512 17.3C137.345 17.9667 136.412 18.9333 135.712 20.2C135.012 21.4333 134.662 22.9167 134.662 24.65C134.662 26.35 135.012 27.8333 135.712 29.1C136.412 30.3667 137.345 31.3333 138.512 32C139.712 32.6667 141.062 33 142.562 33ZM196.189 11C198.322 11 200.205 11.4167 201.839 12.25C203.505 13.0833 204.805 14.3667 205.739 16.1C206.672 17.8 207.139 20 207.139 22.7V38H200.889V23.5C200.889 21.1333 200.372 19.3667 199.339 18.2C198.305 17.0333 196.822 16.45 194.889 16.45C193.522 16.45 192.305 16.75 191.239 17.35C190.205 17.95 189.389 18.8333 188.789 20C188.222 21.1667 187.939 22.65 187.939 24.45V38H181.689V23.5C181.689 21.1333 181.172 19.3667 180.139 18.2C179.105 17.0333 177.622 16.45 175.689 16.45C174.322 16.45 173.105 16.75 172.039 17.35C171.005 17.95 170.189 18.8333 169.589 20C169.022 21.1667 168.739 22.65 168.739 24.45V38H162.489V11.3H168.439V18.4L167.389 16.3C168.289 14.5667 169.589 13.25 171.289 12.35C173.022 11.45 174.989 11 177.189 11C179.689 11 181.855 11.6167 183.689 12.85C185.555 14.0833 186.789 15.95 187.389 18.45L184.939 17.6C185.805 15.6 187.239 14 189.239 12.8C191.239 11.6 193.555 11 196.189 11ZM227.424 38.35C224.458 38.35 221.858 37.7667 219.624 36.6C217.424 35.4 215.708 33.7667 214.474 31.7C213.274 29.6333 212.674 27.2833 212.674 24.65C212.674 21.9833 213.258 19.6333 214.424 17.6C215.624 15.5333 217.258 13.9167 219.324 12.75C221.424 11.5833 223.808 11 226.474 11C229.074 11 231.391 11.5667 233.424 12.7C235.458 13.8333 237.058 15.4333 238.224 17.5C239.391 19.5667 239.974 22 239.974 24.8C239.974 25.0667 239.958 25.3667 239.924 25.7C239.924 26.0333 239.908 26.35 239.874 26.65H217.624V22.5H236.574L234.124 23.8C234.158 22.2667 233.841 20.9167 233.174 19.75C232.508 18.5833 231.591 17.6667 230.424 17C229.291 16.3333 227.974 16 226.474 16C224.941 16 223.591 16.3333 222.424 17C221.291 17.6667 220.391 18.6 219.724 19.8C219.091 20.9667 218.774 22.35 218.774 23.95V24.95C218.774 26.55 219.141 27.9667 219.874 29.2C220.608 30.4333 221.641 31.3833 222.974 32.05C224.308 32.7167 225.841 33.05 227.574 33.05C229.074 33.05 230.424 32.8167 231.624 32.35C232.824 31.8833 233.891 31.15 234.824 30.15L238.174 34C236.974 35.4 235.458 36.4833 233.624 37.25C231.824 37.9833 229.758 38.35 227.424 38.35ZM3.7 99V64H20.1C24.3 64 27.5 64.8333 29.7 66.5C31.9 68.1333 33 70.3333 33 73.1C33 74.9667 32.5667 76.5667 31.7 77.9C30.8333 79.2 29.6667 80.2167 28.2 80.95C26.7667 81.65 25.2 82 23.5 82L24.4 80.2C26.3667 80.2 28.1333 80.5667 29.7 81.3C31.2667 82 32.5 83.0333 33.4 84.4C34.3333 85.7667 34.8 87.4667 34.8 89.5C34.8 92.5 33.65 94.8333 31.35 96.5C29.05 98.1667 25.6333 99 21.1 99H3.7ZM10.2 93.9H20.7C23.1333 93.9 25 93.5 26.3 92.7C27.6 91.9 28.25 90.6167 28.25 88.85C28.25 87.1167 27.6 85.85 26.3 85.05C25 84.2167 23.1333 83.8 20.7 83.8H9.7V78.75H19.4C21.6667 78.75 23.4 78.35 24.6 77.55C25.8333 76.75 26.45 75.55 26.45 73.95C26.45 72.3167 25.8333 71.1 24.6 70.3C23.4 69.5 21.6667 69.1 19.4 69.1H10.2V93.9ZM57.2871 99V93.6L56.9371 92.45V83C56.9371 81.1667 56.3871 79.75 55.2871 78.75C54.1871 77.7167 52.5204 77.2 50.2871 77.2C48.7871 77.2 47.3038 77.4333 45.8371 77.9C44.4038 78.3667 43.1871 79.0167 42.1871 79.85L39.7371 75.3C41.1704 74.2 42.8704 73.3833 44.8371 72.85C46.8371 72.2833 48.9038 72 51.0371 72C54.9038 72 57.8871 72.9333 59.9871 74.8C62.1204 76.6333 63.1871 79.4833 63.1871 83.35V99H57.2871ZM48.8871 99.35C46.8871 99.35 45.1371 99.0167 43.6371 98.35C42.1371 97.65 40.9704 96.7 40.1371 95.5C39.3371 94.2667 38.9371 92.8833 38.9371 91.35C38.9371 89.85 39.2871 88.5 39.9871 87.3C40.7204 86.1 41.9038 85.15 43.5371 84.45C45.1704 83.75 47.3371 83.4 50.0371 83.4H57.7871V87.55H50.4871C48.3538 87.55 46.9204 87.9 46.1871 88.6C45.4538 89.2667 45.0871 90.1 45.0871 91.1C45.0871 92.2333 45.5371 93.1333 46.4371 93.8C47.3371 94.4667 48.5871 94.8 50.1871 94.8C51.7204 94.8 53.0871 94.45 54.2871 93.75C55.5204 93.05 56.4038 92.0167 56.9371 90.65L57.9871 94.4C57.3871 95.9667 56.3038 97.1833 54.7371 98.05C53.2038 98.9167 51.2538 99.35 48.8871 99.35ZM83.207 99.35C80.407 99.35 77.907 98.7667 75.707 97.6C73.5404 96.4 71.8404 94.7667 70.607 92.7C69.3737 90.6333 68.757 88.2833 68.757 85.65C68.757 82.9833 69.3737 80.6333 70.607 78.6C71.8404 76.5333 73.5404 74.9167 75.707 73.75C77.907 72.5833 80.407 72 83.207 72C85.807 72 88.0904 72.5333 90.057 73.6C92.057 74.6333 93.5737 76.1667 94.607 78.2L89.807 81C89.007 79.7333 88.0237 78.8 86.857 78.2C85.7237 77.6 84.4904 77.3 83.157 77.3C81.6237 77.3 80.2404 77.6333 79.007 78.3C77.7737 78.9667 76.807 79.9333 76.107 81.2C75.407 82.4333 75.057 83.9167 75.057 85.65C75.057 87.3833 75.407 88.8833 76.107 90.15C76.807 91.3833 77.7737 92.3333 79.007 93C80.2404 93.6667 81.6237 94 83.157 94C84.4904 94 85.7237 93.7 86.857 93.1C88.0237 92.5 89.007 91.5667 89.807 90.3L94.607 93.1C93.5737 95.1 92.057 96.65 90.057 97.75C88.0904 98.8167 85.807 99.35 83.207 99.35ZM104.566 93.05L104.716 85.2L118.666 72.3H126.166L114.316 84.2L111.016 86.95L104.566 93.05ZM99.4656 99V61.9H105.716V99H99.4656ZM119.616 99L109.866 86.95L113.816 81.95L127.216 99H119.616ZM131.353 87.4L130.153 64H137.553L136.303 87.4H131.353ZM133.853 99.35C132.686 99.35 131.719 98.9667 130.953 98.2C130.186 97.4333 129.803 96.5167 129.803 95.45C129.803 94.3833 130.186 93.4833 130.953 92.75C131.719 91.9833 132.686 91.6 133.853 91.6C135.019 91.6 135.969 91.9833 136.703 92.75C137.436 93.4833 137.803 94.3833 137.803 95.45C137.803 96.5167 137.436 97.4333 136.703 98.2C135.969 98.9667 135.019 99.35 133.853 99.35Z" fill="#DCC2CA"/>
</svg>
