<svg width="273" height="37" viewBox="0 0 273 37" fill="none" xmlns="http://www.w3.org/2000/svg">
<path d="M11.95 36L0.35 0.999998H7.1L17.45 32.65H14.1L24.85 0.999998H30.85L41.3 32.65H38.05L48.65 0.999998H54.85L43.25 36H36.35L26.8 7.45H28.6L18.9 36H11.95ZM65.8453 15.55H83.2453V20.9H65.8453V15.55ZM66.3453 30.55H86.0953V36H59.8453V0.999998H85.3953V6.45H66.3453V30.55ZM93.0414 36V0.999998H99.5414V30.5H117.841V36H93.0414ZM138.238 36.5C135.572 36.5 133.088 36.0667 130.788 35.2C128.522 34.3 126.538 33.05 124.838 31.45C123.172 29.8167 121.872 27.9 120.938 25.7C120.005 23.5 119.538 21.1 119.538 18.5C119.538 15.9 120.005 13.5 120.938 11.3C121.872 9.1 123.188 7.2 124.888 5.6C126.588 3.96667 128.572 2.71667 130.838 1.85C133.105 0.949998 135.588 0.499998 138.288 0.499998C141.155 0.499998 143.772 0.999999 146.138 2C148.505 2.96667 150.505 4.41666 152.138 6.35L147.938 10.3C146.672 8.93333 145.255 7.91667 143.688 7.25C142.122 6.55 140.422 6.2 138.588 6.2C136.755 6.2 135.072 6.5 133.538 7.1C132.038 7.7 130.722 8.55 129.588 9.65C128.488 10.75 127.622 12.05 126.988 13.55C126.388 15.05 126.088 16.7 126.088 18.5C126.088 20.3 126.388 21.95 126.988 23.45C127.622 24.95 128.488 26.25 129.588 27.35C130.722 28.45 132.038 29.3 133.538 29.9C135.072 30.5 136.755 30.8 138.588 30.8C140.422 30.8 142.122 30.4667 143.688 29.8C145.255 29.1 146.672 28.05 147.938 26.65L152.138 30.65C150.505 32.55 148.505 34 146.138 35C143.772 36 141.138 36.5 138.238 36.5ZM173.734 36.5C171.001 36.5 168.484 36.05 166.184 35.15C163.884 34.25 161.884 33 160.184 31.4C158.484 29.7667 157.167 27.8667 156.234 25.7C155.301 23.5 154.834 21.1 154.834 18.5C154.834 15.9 155.301 13.5167 156.234 11.35C157.167 9.15 158.484 7.25 160.184 5.65C161.884 4.01667 163.884 2.75 166.184 1.85C168.484 0.949998 170.984 0.499998 173.684 0.499998C176.417 0.499998 178.917 0.949998 181.184 1.85C183.484 2.75 185.484 4.01667 187.184 5.65C188.884 7.25 190.201 9.15 191.134 11.35C192.067 13.5167 192.534 15.9 192.534 18.5C192.534 21.1 192.067 23.5 191.134 25.7C190.201 27.9 188.884 29.8 187.184 31.4C185.484 33 183.484 34.25 181.184 35.15C178.917 36.05 176.434 36.5 173.734 36.5ZM173.684 30.8C175.451 30.8 177.084 30.5 178.584 29.9C180.084 29.3 181.384 28.45 182.484 27.35C183.584 26.2167 184.434 24.9167 185.034 23.45C185.667 21.95 185.984 20.3 185.984 18.5C185.984 16.7 185.667 15.0667 185.034 13.6C184.434 12.1 183.584 10.8 182.484 9.7C181.384 8.56667 180.084 7.7 178.584 7.1C177.084 6.5 175.451 6.2 173.684 6.2C171.917 6.2 170.284 6.5 168.784 7.1C167.317 7.7 166.017 8.56667 164.884 9.7C163.784 10.8 162.917 12.1 162.284 13.6C161.684 15.0667 161.384 16.7 161.384 18.5C161.384 20.2667 161.684 21.9 162.284 23.4C162.917 24.9 163.784 26.2167 164.884 27.35C165.984 28.45 167.284 29.3 168.784 29.9C170.284 30.5 171.917 30.8 173.684 30.8ZM199.124 36V0.999998H204.474L219.774 26.55H216.974L232.024 0.999998H237.374L237.424 36H231.274L231.224 10.65H232.524L219.724 32H216.824L203.824 10.65H205.324V36H199.124ZM252.578 15.55H269.978V20.9H252.578V15.55ZM253.078 30.55H272.828V36H246.578V0.999998H272.128V6.45H253.078V30.55Z" fill="#D7DBE7"/>
</svg>
